<?xml version="1.0" encoding="UTF-8"?>
<!-- Generator: Adobe Illustrator 27.0.0, SVG Export Plug-In . SVG Version: 6.00 Build 0)  -->
<svg xmlns="http://www.w3.org/2000/svg" xmlns:xlink="http://www.w3.org/1999/xlink" version="1.1" id="Layer_1" x="0px" y="0px" viewBox="0 0 30 30" style="enable-background:new 0 0 30 30;" xml:space="preserve">
<style type="text/css">
	.st0{fill:#2BAAE1;}
</style>
<g id="OVWhqL.tif">
	<g>
		<path class="st0" d="M14.13,0c0.59,0,1.17,0,1.76,0c0.08,0.02,0.15,0.04,0.23,0.05c2.1,0.14,4.09,0.7,5.93,1.71    c4.22,2.33,6.81,5.87,7.71,10.62c0.11,0.57,0.16,1.15,0.24,1.73c0,0.59,0,1.17,0,1.76c-0.02,0.08-0.04,0.17-0.05,0.25    c-0.15,2.09-0.69,4.08-1.71,5.91c-2.76,4.91-6.97,7.58-12.6,7.93c-2.42,0.15-4.77-0.3-6.95-1.39c-5.34-2.66-8.25-6.99-8.64-12.95    c-0.18-2.72,0.43-5.32,1.76-7.71C4.14,3.7,7.69,1.13,12.43,0.23C12.99,0.13,13.57,0.08,14.13,0z M15.01,2.34    C8.03,2.35,2.38,8,2.37,14.98c-0.01,6.98,5.67,12.66,12.65,12.66c6.98,0,12.63-5.66,12.64-12.63C27.67,8.02,21.99,2.34,15.01,2.34    z"></path>
		<path class="st0" d="M13.02,17.32c0.07-0.12,0.12-0.24,0.2-0.32c2.21-2.22,4.43-4.43,6.64-6.64c0.26-0.26,0.55-0.47,0.94-0.46    c0.47,0,0.83,0.21,1.05,0.63c0.22,0.42,0.18,0.83-0.09,1.21c-0.08,0.11-0.17,0.21-0.27,0.31c-2.52,2.52-5.03,5.03-7.55,7.55    c-0.66,0.66-1.29,0.66-1.95,0c-1.17-1.17-2.35-2.34-3.52-3.52c-0.54-0.54-0.56-1.25-0.06-1.74c0.45-0.44,1.13-0.45,1.61-0.01    c0.4,0.37,0.78,0.77,1.16,1.15C11.76,16.07,12.35,16.65,13.02,17.32z"></path>
	</g>
</g>
</svg>
